<svg width="40" height="36" viewBox="0 0 40 36" fill="none" xmlns="http://www.w3.org/2000/svg">
<path d="M6.46802 32.67C6.30668 33.066 6.09402 33.418 5.83002 33.726C5.58068 34.034 5.29465 34.2907 4.97198 34.496C4.66398 34.7013 4.32663 34.8553 3.95996 34.958C3.60796 35.0607 3.25599 35.112 2.90399 35.112H0L12.496 2.31001C12.7893 1.56201 13.2367 0.990001 13.838 0.594002C14.4393 0.198001 15.136 0 15.928 0H18.832L6.46802 32.67Z" fill="#07101C"/>
<path d="M16.9094 32.67C16.7481 33.066 16.5354 33.418 16.2714 33.726C16.0221 34.034 15.7361 34.2907 15.4134 34.496C15.1054 34.7013 14.768 34.8553 14.4014 34.958C14.0494 35.0607 13.6974 35.112 13.3454 35.112H10.4414L22.9374 2.31001C23.2307 1.56201 23.6781 0.990001 24.2794 0.594002C24.8808 0.198001 25.5774 0 26.3694 0H29.2734L16.9094 32.67Z" fill="#07101C"/>
<path d="M27.3508 32.67C27.1895 33.066 26.9768 33.418 26.7128 33.726C26.4635 34.034 26.1775 34.2907 25.8548 34.496C25.5468 34.7013 25.2094 34.8553 24.8428 34.958C24.4908 35.0607 24.1388 35.112 23.7868 35.112H20.8828L33.3788 2.31001C33.6721 1.56201 34.1195 0.990001 34.7208 0.594002C35.3222 0.198001 36.0188 0 36.8108 0H39.7148L27.3508 32.67Z" fill="#07101C"/>
</svg>