<svg width="30" height="35" viewBox="0 0 30 35" fill="none" xmlns="http://www.w3.org/2000/svg">
<path d="M6.62854 32.5658C6.4632 32.9605 6.24526 33.3114 5.97471 33.6184C5.71918 33.9254 5.42609 34.1813 5.09541 34.386C4.77977 34.5906 4.43406 34.7442 4.05829 34.8465C3.69755 34.9488 3.33682 35 2.97608 35H0L12.8062 2.30263C13.1068 1.55702 13.5652 0.986844 14.1815 0.592108C14.7977 0.19737 15.5117 0 16.3233 0H19.2994L6.62854 32.5658Z" fill="#07101C"/>
<path d="M17.3291 32.5658C17.1638 32.9605 16.9458 33.3114 16.6753 33.6184C16.4198 33.9254 16.1267 34.1813 15.796 34.386C15.4803 34.5906 15.1346 34.7442 14.7589 34.8465C14.3981 34.9488 14.0374 35 13.6767 35H10.7006L23.5067 2.30263C23.8074 1.55702 24.2658 0.986844 24.882 0.592108C25.4983 0.19737 26.2123 0 27.0239 0H30L17.3291 32.5658Z" fill="#07101C"/>
</svg>